<svg xmlns="http://www.w3.org/2000/svg" width="48" height="49" fill="none" viewBox="0 0 48 49">
  <g clip-path="url(#a)">
    <path fill="#fff" d="M47.998 14.068a66.697 66.697 0 0 0-.021-1.448c-.028-1.052-.09-2.112-.277-3.153-.19-1.056-.5-2.038-.988-2.998a10.081 10.081 0 0 0-4.407-4.407 10.64 10.64 0 0 0-2.996-.987c-1.04-.188-2.102-.25-3.154-.278a70.265 70.265 0 0 0-1.449-.021c-.573-.003-1.147-.003-1.72-.003h-17.97c-.574 0-1.147 0-1.72.003a70.23 70.23 0 0 0-1.449.022 38.61 38.61 0 0 0-.79.029c-.791.038-1.584.108-2.363.248a10.96 10.96 0 0 0-2.273.654A10.067 10.067 0 0 0 1.29 6.47C.803 7.43.493 8.411.303 9.468c-.187 1.04-.249 2.1-.277 3.152-.013.483-.02.966-.022 1.449C0 14.642 0 15.215 0 15.789v17.97c0 .574 0 1.147.003 1.72.003.484.009.966.022 1.449.028 1.051.09 2.113.277 3.152.19 1.056.5 2.039.988 2.998a10.063 10.063 0 0 0 4.407 4.407c.96.488 1.941.798 2.997.987 1.04.188 2.101.25 3.153.278.483.013.966.018 1.449.021.573.004 1.146.004 1.72.004h17.97c.573 0 1.147 0 1.72-.004.483-.003.965-.008 1.449-.021 1.052-.028 2.113-.09 3.154-.278a10.653 10.653 0 0 0 2.996-.987 10.078 10.078 0 0 0 4.407-4.407c.488-.96.798-1.942.987-2.998.187-1.04.25-2.1.278-3.152.013-.483.018-.965.02-1.448.004-.574.004-1.147.004-1.72V15.788c0-.574 0-1.147-.003-1.72Z"/>
    <path fill="#EE6C1B" d="M38.032 30.4c.053-.181.108-.36.155-.546 1.992-7.937-2.87-17.322-11.098-22.263 3.606 4.888 5.2 10.809 3.783 15.986-.126.462-.278.906-.446 1.336-.183-.12-.412-.255-.72-.425 0 0-8.185-5.054-17.056-13.992-.233-.235 4.73 7.094 10.363 13.044-2.654-1.49-10.049-6.87-14.731-11.155.575.96 1.26 1.883 2.011 2.772 3.91 4.958 9.009 11.076 15.117 15.774-4.292 2.627-10.357 2.83-16.395.003a24.774 24.774 0 0 1-4.197-2.504 25.142 25.142 0 0 0 11.285 9.675c5.713 2.456 11.395 2.29 15.627.04l-.003.005.045-.027c.19-.102.378-.207.562-.317 2.044-1.05 6.033-2.085 8.177 2.086.527 1.026 1.65-4.414-2.475-9.488a.018.018 0 0 0-.004-.005Z"/>
  </g>
  <defs>
    <clipPath id="a">
      <path fill="#fff" d="M0 .773h48v48H0z"/>
    </clipPath>
  </defs>
</svg>
