<svg xmlns="http://www.w3.org/2000/svg" width="17" height="24" fill="none" viewBox="0 0 17 24">
  <g clip-path="url(#a)">
    <path fill="#fff" fill-rule="evenodd" d="M15.155 15.972c-.218-.238-.258-.307-.279-.479-.012-.094-.004-.146.051-.325a2.37 2.37 0 0 0 .116-.812c-.004-1.097-.618-2.405-1.454-3.101-.23-.191-.388-.288-.51-.315-.126-.026-.274-.188-.274-.298 0-.11.067-.167.201-.173.091-.004.116-.016.187-.086.223-.215.532-.684.772-1.17.428-.877.676-1.845.771-3.027.03-.4.015-1.552-.03-1.923-.114-.952-.319-1.71-.652-2.386-.318-.654-.648-1.058-1.09-1.353a1.556 1.556 0 0 0-.918-.282c-.812 0-1.606.656-2.155 1.777-.467.958-.755 2.081-.844 3.3a16.94 16.94 0 0 0 .032 1.94c.039.36.116.783.218 1.197.08.331.306 1.028.394 1.215.04.09.044.109.02.146-.043.063-.08.059-.177-.023-.12-.101-.294-.18-.538-.243-.268-.071-.824-.092-1.141-.041-.309.049-.455.114-.606.27a.544.544 0 0 1-.158.128c-.05 0-.134-.091-.134-.146 0-.027.027-.112.06-.191a9.42 9.42 0 0 0 .53-1.988c.12-.813.127-1.982.017-2.833-.117-.924-.394-1.903-.749-2.652C6.345 1.103 5.7.467 4.973.282a1.676 1.676 0 0 0-.737.002c-.416.108-.822.4-1.168.84-.493.63-.867 1.595-1.044 2.691a10.48 10.48 0 0 0 .112 3.775c.234 1.036.705 2.053 1.25 2.697.153.18.18.2.31.22.099.016.174.088.174.17 0 .093-.102.19-.28.276-.228.11-.41.24-.636.452a4.425 4.425 0 0 0-1.206 2.082c-.168.662-.173 1.236-.008 1.716.114.337.073.485-.22.8-.568.61-.9 1.232-1.065 1.988-.039.185-.045.27-.045.698 0 .428.004.512.045.701.241 1.11.934 2.051 1.973 2.677a5.406 5.406 0 0 0 1.738.666c.246.05.709.2 1.215.394.477.183 1.56.378 2.469.444 1.115.083 2.187.02 3.038-.18.366-.088.733-.214.881-.303.195-.116.492-.238 1.218-.5.504-.18.646-.24.944-.391 1.237-.63 2.072-1.696 2.297-2.939.045-.252.053-.914.01-1.147-.144-.829-.46-1.452-1.084-2.14v.001Z" clip-rule="evenodd"/>
    <path fill="#fff" fill-rule="evenodd" d="M1.24 14.406c.002-.31.01-.437.05-.65.204-1.161.889-2.305 1.756-2.934.095-.069.174-.132.174-.14 0-.006-.056-.081-.124-.165-.651-.808-1.133-2.033-1.366-3.472-.246-1.509-.144-3.083.284-4.41C2.48 1.188 3.301.224 4.236.026c.199-.04.658-.024.852.033.374.108.75.345 1.097.69.746.743 1.302 1.866 1.584 3.2.223 1.063.283 2.289.155 3.227-.112.822-.232 1.328-.45 1.896a1.358 1.358 0 0 0-.082.242c.006.004.114-.016.24-.047A3.102 3.102 0 0 1 9.1 9.31c.095.028.176.051.183.051.022 0 .006-.061-.06-.217-.375-.892-.602-2.344-.542-3.456.081-1.47.368-2.652.882-3.647C10.105.996 10.82.289 11.56.068c.241-.071.615-.09.857-.041 1.425.29 2.485 2.256 2.643 4.906a10.45 10.45 0 0 1-.166 2.358c-.246 1.322-.703 2.447-1.3 3.198a.93.93 0 0 0-.12.168c0 .01.071.072.158.134.456.342.809.742 1.128 1.278.648 1.094.85 2.392.513 3.287l-.05.136.166.17a4.477 4.477 0 0 1 1.153 2.02c.486 1.912-.501 3.88-2.439 4.866-.286.146-.463.22-.838.347a3.9 3.9 0 0 0-.378.148 3.118 3.118 0 0 1-.319.13c-.11.039-.325.132-.475.205-.15.073-.365.165-.477.205-.888.321-2.205.471-3.472.396-1.174-.069-2.289-.267-3.26-.578a13.491 13.491 0 0 0-.587-.175 8.137 8.137 0 0 1-.467-.142l-.49-.17c-1.327-.458-2.326-1.282-2.89-2.383a3.975 3.975 0 0 1-.045-3.587c.227-.474.485-.845.84-1.213l.193-.2-.073-.217" clip-rule="evenodd"/>
    <path fill="#000" fill-rule="evenodd" d="M4.236.027C3.3.224 2.479 1.19 2.014 2.635c-.429 1.328-.53 2.901-.284 4.41.234 1.44.715 2.664 1.366 3.473.068.083.124.158.124.164 0 .009-.079.071-.174.14-.867.63-1.552 1.773-1.757 2.935a3.243 3.243 0 0 0-.049.65c0 .438.02.587.126.91l.073.217-.193.199c-.355.368-.613.74-.84 1.212a3.975 3.975 0 0 0 .044 3.588c.565 1.101 1.564 1.926 2.892 2.382.173.061.391.138.49.17.095.035.304.098.466.143.16.042.425.122.587.174.971.311 2.086.51 3.26.58 1.267.075 2.584-.076 3.472-.397a6.22 6.22 0 0 0 .477-.205 5.65 5.65 0 0 1 .475-.205c.112-.038.256-.097.319-.13.065-.032.234-.1.378-.148.376-.128.552-.201.838-.347 1.938-.987 2.925-2.954 2.44-4.865a4.477 4.477 0 0 0-1.154-2.02l-.167-.171.051-.136c.337-.896.134-2.193-.513-3.287a4.224 4.224 0 0 0-1.128-1.278.783.783 0 0 1-.158-.134c0-.01.053-.087.12-.168.597-.751 1.054-1.876 1.3-3.198a10.45 10.45 0 0 0 .166-2.358c-.158-2.65-1.218-4.616-2.643-4.906a2.069 2.069 0 0 0-.857.04c-.741.222-1.456.928-1.998 1.972-.514.995-.8 2.177-.882 3.647-.06 1.113.167 2.565.543 3.456.064.157.08.218.059.218-.007 0-.088-.023-.183-.051a3.102 3.102 0 0 0-1.468-.04 1.54 1.54 0 0 1-.24.046c-.004-.006.03-.114.081-.242.22-.568.339-1.074.45-1.896.129-.939.07-2.165-.154-3.227-.282-1.334-.838-2.457-1.584-3.2C5.838.407 5.462.17 5.09.062a2.52 2.52 0 0 0-.853-.033V.027Zm.737.256c.727.185 1.37.82 1.842 1.816.355.749.631 1.728.749 2.652.11.85.102 2.02-.018 2.833a9.352 9.352 0 0 1-.53 1.988.814.814 0 0 0-.06.19c0 .055.084.147.135.147a.545.545 0 0 0 .158-.128c.15-.157.297-.221.605-.27.317-.051.873-.03 1.142.04.244.063.418.143.538.244.097.081.134.086.176.023.025-.037.02-.055-.02-.146-.087-.187-.313-.884-.394-1.215A9.42 9.42 0 0 1 9.08 7.26a16.723 16.723 0 0 1-.033-1.94c.09-1.217.378-2.34.845-3.3C10.439.9 11.233.244 12.046.244c.343 0 .615.083.917.282.443.294.772.699 1.09 1.353.334.676.539 1.434.653 2.386.044.371.06 1.523.03 1.923-.096 1.181-.343 2.15-.772 3.028-.24.485-.548.954-.772 1.17-.07.068-.095.08-.186.085-.134.006-.201.063-.201.173 0 .11.148.272.274.298.121.026.28.124.51.315.836.697 1.45 2.005 1.453 3.1 0 .332-.026.53-.115.813-.055.178-.063.231-.051.325.02.173.06.241.278.479.624.688.94 1.312 1.084 2.14.043.234.035.896-.01 1.148-.225 1.242-1.06 2.308-2.297 2.938-.298.152-.44.211-.944.392-.727.262-1.023.384-1.218.5-.148.089-.516.214-.881.302-.851.2-1.923.264-3.038.18-.91-.066-1.992-.261-2.47-.444-.505-.193-.968-.343-1.214-.394a5.406 5.406 0 0 1-1.738-.666c-1.04-.625-1.732-1.566-1.973-2.677-.041-.188-.045-.267-.045-.7 0-.433.006-.514.045-.699.164-.755.497-1.376 1.066-1.988.292-.315.333-.463.219-.8-.165-.48-.16-1.054.008-1.716a4.422 4.422 0 0 1 1.206-2.081c.226-.213.408-.343.636-.453.178-.085.28-.183.28-.276 0-.081-.075-.155-.174-.17-.13-.02-.157-.039-.31-.22-.545-.643-1.016-1.661-1.25-2.696a10.48 10.48 0 0 1-.112-3.776c.177-1.096.55-2.06 1.044-2.69.345-.44.75-.733 1.168-.84.209-.055.53-.057.737-.002V.283Z" clip-rule="evenodd"/>
    <path fill="#000" fill-rule="evenodd" d="M7.932 17.979c-.182.02-.292.053-.452.136-.26.136-.424.386-.388.589.057.327.408.569.926.643.156.02.168.027.177.073.014.102-.041.262-.13.384-.2.273-.634.488-1.138.565-.298.044-.694.026-.934-.045-.38-.112-.619-.297-.694-.534-.035-.108-.041-.116-.098-.116-.056 0-.06.004-.067.09-.006.067.008.12.057.219.12.244.377.442.7.546.793.252 1.743.038 2.228-.5.07-.077.134-.142.14-.142a.38.38 0 0 1 .08.102c.308.482 1.133.808 1.848.733.416-.045.747-.165.962-.351.228-.197.373-.563.246-.614-.055-.02-.088.01-.13.126-.076.21-.193.327-.445.445-.59.276-1.48.196-2.047-.181-.272-.183-.396-.378-.402-.632-.002-.165-.034-.14.262-.205.406-.091.685-.368.654-.652a.53.53 0 0 0-.191-.358c-.187-.174-.39-.264-.717-.313a1.218 1.218 0 0 0-.447-.01v.002Zm.202.112c.079.04.089.079.038.144-.035.042-.146.11-.187.11-.032 0-.073-.076-.073-.137 0-.132.096-.183.222-.117Zm-.321.132c.065.036.045.075-.075.144-.226.128-.313.235-.313.381 0 .088-.045.15-.1.14-.018-.003-.049-.04-.07-.085-.033-.07-.035-.09-.015-.185a.525.525 0 0 1 .343-.396c.08-.024.183-.024.23 0Zm-5.292-.201c-.173.03-.23.049-.463.148-.392.165-.58.288-.819.54-.243.258-.39.585-.39.875 0 .23.12.51.293.684.284.289.668.43 1.18.43.97 0 1.874-.598 2.04-1.35a1.285 1.285 0 0 0-.038-.59c-.128-.331-.45-.59-.887-.707a2.808 2.808 0 0 0-.916-.03Zm.776.264c.325.069.648.29.757.52.201.414-.02.93-.556 1.3a2.737 2.737 0 0 1-.672.296c-.17.045-.244.053-.504.055-.258 0-.329-.007-.463-.045-.335-.095-.57-.268-.686-.503-.215-.435.022-.961.603-1.343.217-.14.318-.182.576-.24.118-.026.231-.052.254-.056.1-.022.558-.012.69.017v-.001Z" clip-rule="evenodd"/>
    <path fill="#F2755F" d="M2.901 20.424c.875-.233 1.457-.9 1.3-1.49-.157-.59-.994-.878-1.869-.645-.874.233-1.456.9-1.299 1.49.157.59.994.878 1.868.645Z"/>
    <path fill="#000" fill-rule="evenodd" d="M13.23 18.258c-.438.117-.76.376-.888.706a1.278 1.278 0 0 0-.039.591c.167.751 1.07 1.349 2.041 1.349.512 0 .896-.14 1.18-.43.173-.174.293-.454.293-.684 0-.29-.147-.617-.39-.875-.24-.252-.426-.375-.819-.54a1.67 1.67 0 0 0-.463-.148 2.805 2.805 0 0 0-.916.03Zm.83.217.254.057c.257.056.36.1.576.24.58.381.819.907.603 1.341-.116.236-.351.408-.686.504-.134.038-.205.045-.464.045-.26-.002-.333-.01-.503-.055a2.7 2.7 0 0 1-.672-.297c-.536-.37-.758-.885-.556-1.3.109-.229.432-.45.757-.52a3.23 3.23 0 0 1 .69-.016v.001Z" clip-rule="evenodd"/>
    <path fill="#F2755F" d="M15.633 19.984c.157-.59-.425-1.256-1.3-1.49-.874-.232-1.71.056-1.868.646-.157.59.425 1.257 1.3 1.49.874.233 1.71-.056 1.868-.646Z"/>
    <path fill="#FFB88A" stroke="#221914" stroke-width=".1" d="M11.872 1.522c-.1.018-.208.092-.31.186a2.661 2.661 0 0 0-.256.28c-.08.097-.198.261-.354.666-.17.44-.252.824-.307 1.14a10.017 10.017 0 0 0-.143 1.442c-.035 1.309-.057 2.184.32 3.199.114.302.234.625.38.876.146.255.309.42.499.437.155.014.316-.072.478-.23.16-.158.313-.38.451-.621.275-.48.482-1.02.561-1.228l-1.32-6.147Zm0 0 .016-.002c.138-.017.316.072.513.27.194.197.396.488.58.845.367.716.66 1.688.681 2.675.023 1.047-.265 1.823-.47 2.358l-1.32-6.146Z"/>
    <path fill="#231815" fill-rule="evenodd" stroke="#221914" stroke-miterlimit="10" stroke-width=".1" d="M11.727 1.338c-.758.203-1.353 1.568-1.503 3.44-.03.364-.03 1.258-.002 1.625.083 1.064.3 1.996.624 2.678.138.289.241.455.414.662.075.09.152.187.17.217.039.06.126.098.223.098.153 0 .638-.365.916-.69.656-.764 1.048-1.77 1.213-3.107.034-.285.034-1.3 0-1.594-.169-1.4-.668-2.51-1.413-3.138-.264-.221-.388-.257-.642-.19Zm.323.173c.122.073.264.205.412.384.555.66.906 1.548 1.066 2.68.051.37.051 1.424 0 1.808-.13.958-.428 1.809-.867 2.473-.243.368-.59.717-.889.891l-.09.053-.13-.13c-1.106-1.094-1.48-4.662-.718-6.868.03-.089.128-.409.349-.75 0 0 .225-.347.61-.545.028-.015.11-.085.257.004Z" clip-rule="evenodd"/>
    <path fill="#FFB88A" fill-rule="evenodd" d="M4.764 1.52c.24.03.499.344.614.486.084.102.205.271.362.68.172.445.255.832.31 1.15.119.689.138 1.234.144 1.448.034 1.308.058 2.192-.325 3.218-.224.603-.486 1.307-.92 1.346-.709.064-1.383-1.696-1.542-2.112-.205-.536-.497-1.32-.474-2.377.044-1.99 1.179-3.92 1.831-3.839Z" clip-rule="evenodd"/>
    <path fill="#231815" fill-rule="evenodd" stroke="#221914" stroke-miterlimit="10" stroke-width=".1" d="M4.277 1.579c-.746.627-1.245 1.738-1.413 3.137-.035.294-.035 1.31 0 1.594.164 1.338.556 2.343 1.212 3.107.279.325.764.69.916.69.097 0 .185-.038.223-.097a2.97 2.97 0 0 1 .17-.218 2.8 2.8 0 0 0 .415-.661c.323-.683.54-1.615.623-2.679.029-.368.029-1.26-.002-1.624-.15-1.873-.745-3.237-1.502-3.44-.254-.068-.378-.03-.642.19Zm.576-.023c.384.198.61.545.61.545.22.341.318.662.349.75.761 2.206.388 5.774-.72 6.869l-.13.13-.089-.053c-.298-.175-.645-.524-.889-.892-.439-.663-.737-1.514-.867-2.473-.05-.384-.05-1.438 0-1.807.16-1.133.512-2.02 1.066-2.68.149-.18.29-.311.413-.385.147-.088.228-.02.257-.004Z" clip-rule="evenodd"/>
    <path fill="#000" fill-rule="evenodd" d="M4.85 14.877a1.1 1.1 0 0 0-.485.265 1.083 1.083 0 0 0-.323.456c-.045.14-.06.467-.03.623.117.603.747 1.025 1.341.901.545-.113.935-.582.935-1.125 0-.199-.03-.333-.122-.521a1.143 1.143 0 0 0-.669-.581 1.255 1.255 0 0 0-.648-.018Zm.026.387c.191.114.179.43-.022.608-.132.115-.342.067-.429-.102-.06-.114-.059-.211.006-.341.102-.203.274-.268.445-.165Zm6.211-.369c-.285.09-.538.31-.669.58a1.067 1.067 0 0 0-.121.522c0 .543.39 1.012.934 1.125.595.124 1.224-.298 1.342-.9a1.776 1.776 0 0 0-.03-.624 1.082 1.082 0 0 0-.324-.456 1.096 1.096 0 0 0-.485-.265 1.255 1.255 0 0 0-.648.018Zm1.066.534c.064.13.067.228.006.341-.088.169-.297.218-.429.102-.2-.178-.213-.493-.022-.607.17-.104.343-.039.444.165Z" clip-rule="evenodd"/>
  </g>
  <defs>
    <clipPath id="a">
      <path fill="#fff" d="M0 0h16.666v24H0z"/>
    </clipPath>
  </defs>
</svg>
